<svg xmlns="http://www.w3.org/2000/svg" width="18" height="18.803" viewBox="0 0 18 18.803"><path d="M36.414,19.76,34.8,18.827a7.3,7.3,0,0,0,0-2.661l1.615-.933a.458.458,0,0,0,.208-.531,9.442,9.442,0,0,0-2.074-3.586.456.456,0,0,0-.561-.087l-1.615.933a7.154,7.154,0,0,0-2.3-1.331V8.77a.454.454,0,0,0-.356-.444,9.53,9.53,0,0,0-4.14,0,.454.454,0,0,0-.356.444v1.865a7.38,7.38,0,0,0-2.3,1.331L21.3,11.033a.45.45,0,0,0-.561.087,9.385,9.385,0,0,0-2.074,3.586.453.453,0,0,0,.209.531l1.615.933a7.3,7.3,0,0,0,0,2.661l-1.615.933a.458.458,0,0,0-.209.531,9.442,9.442,0,0,0,2.074,3.586.456.456,0,0,0,.561.087l1.615-.933a7.154,7.154,0,0,0,2.3,1.331v1.865a.454.454,0,0,0,.356.444,9.53,9.53,0,0,0,4.14,0,.454.454,0,0,0,.356-.444V24.366a7.38,7.38,0,0,0,2.3-1.331l1.615.933a.45.45,0,0,0,.561-.087,9.385,9.385,0,0,0,2.074-3.586A.468.468,0,0,0,36.414,19.76Zm-8.772.77A3.033,3.033,0,1,1,30.675,17.5,3.037,3.037,0,0,1,27.642,20.529Z" transform="translate(-18.644 -8.099)"/></svg>