<svg xmlns="http://www.w3.org/2000/svg" width="366.548" height="80" viewBox="0 0 366.548 80">
  <g id="Group_39" data-name="Group 39" transform="translate(-517 310)">
    <path id="Path_4" data-name="Path 4" d="M53.958-34.884,42.874,0H36.142q-1.156,0-1.6-1.5L28.288-21.658q-.306-1.02-.561-2.023T27.3-25.7q-.2,1.02-.459,2.057t-.561,2.057L19.924-1.5a1.761,1.761,0,0,1-1.8,1.5h-6.46L.612-34.884h6.7a2.7,2.7,0,0,1,1.564.442,2.058,2.058,0,0,1,.85,1.122l5,18.632q.374,1.53.663,2.992t.493,2.924q.374-1.462.8-2.924t.9-2.992l5.78-18.7a2.135,2.135,0,0,1,.8-1.122,2.355,2.355,0,0,1,1.445-.442h3.706a2.564,2.564,0,0,1,1.513.442,2.08,2.08,0,0,1,.833,1.122l5.61,18.7q.442,1.53.833,3.009t.765,2.941a55.931,55.931,0,0,1,1.258-5.95L45.254-33.32a2.3,2.3,0,0,1,.85-1.122,2.43,2.43,0,0,1,1.462-.442Zm13.464,0V0H58.99V-34.884ZM68.578-45.05a4.785,4.785,0,0,1-.442,2.04,5.607,5.607,0,0,1-1.173,1.666,5.607,5.607,0,0,1-1.717,1.139,5.268,5.268,0,0,1-2.108.425,5.065,5.065,0,0,1-2.057-.425A5.449,5.449,0,0,1,59.4-41.344a5.507,5.507,0,0,1-1.139-1.666,4.947,4.947,0,0,1-.425-2.04,5.268,5.268,0,0,1,.425-2.108,5.4,5.4,0,0,1,1.139-1.7A5.449,5.449,0,0,1,61.081-50a5.065,5.065,0,0,1,2.057-.425A5.268,5.268,0,0,1,65.246-50a5.607,5.607,0,0,1,1.717,1.139,5.484,5.484,0,0,1,1.173,1.7A5.094,5.094,0,0,1,68.578-45.05ZM84.49-50.524V0h-8.4V-50.524Zm16.9,0V0h-8.4V-50.524Zm16.8,41.48A8.265,8.265,0,0,0,121.295-6.6a9.262,9.262,0,0,0,3.655.714,8.024,8.024,0,0,0,3.434-.714,6.729,6.729,0,0,0,2.6-2.176,10.765,10.765,0,0,0,1.649-3.689,21.079,21.079,0,0,0,.578-5.253,23.319,23.319,0,0,0-.493-5.185,10.017,10.017,0,0,0-1.411-3.451,5.574,5.574,0,0,0-2.227-1.938,6.945,6.945,0,0,0-2.975-.612,8.486,8.486,0,0,0-4.454,1.105,13.52,13.52,0,0,0-3.468,3.111Zm-.442-21.08a18.2,18.2,0,0,1,4.862-3.91A13.06,13.06,0,0,1,129-35.53a11.437,11.437,0,0,1,5.219,1.19,11.712,11.712,0,0,1,4.08,3.451,16.553,16.553,0,0,1,2.652,5.576,28.057,28.057,0,0,1,.935,7.6,23.9,23.9,0,0,1-1.054,7.242,17.722,17.722,0,0,1-3.009,5.78,13.9,13.9,0,0,1-4.726,3.825A13.751,13.751,0,0,1,126.888.51a12.505,12.505,0,0,1-5-.9,12.212,12.212,0,0,1-3.706-2.5V11.39h-8.4V-34.884h5.134a2.063,2.063,0,0,1,2.142,1.53Zm38.59,1.292a15.042,15.042,0,0,1,3.876-4.913,8.264,8.264,0,0,1,5.3-1.785,6.487,6.487,0,0,1,3.876,1.054l-.544,6.29a1.625,1.625,0,0,1-.493.867,1.361,1.361,0,0,1-.867.255,9.908,9.908,0,0,1-1.513-.17,11.691,11.691,0,0,0-1.955-.17,7.036,7.036,0,0,0-2.482.408,6.243,6.243,0,0,0-1.955,1.173,8,8,0,0,0-1.53,1.853,18.08,18.08,0,0,0-1.241,2.482V0h-8.4V-34.884h4.93a2.714,2.714,0,0,1,1.8.459,2.7,2.7,0,0,1,.68,1.649Zm38.93,7.378a10.106,10.106,0,0,0-.459-3.077,7.313,7.313,0,0,0-1.377-2.533,6.4,6.4,0,0,0-2.329-1.717,7.993,7.993,0,0,0-3.281-.629,7.778,7.778,0,0,0-5.729,2.074,10.171,10.171,0,0,0-2.669,5.882Zm-16.014,5.066a16.527,16.527,0,0,0,.952,4.641,9.492,9.492,0,0,0,1.972,3.23,7.724,7.724,0,0,0,2.907,1.9,10.561,10.561,0,0,0,3.723.629,11.542,11.542,0,0,0,3.519-.476A16.5,16.5,0,0,0,194.9-7.514q1.1-.578,1.938-1.054a3.252,3.252,0,0,1,1.615-.476,1.737,1.737,0,0,1,1.564.782l2.414,3.06a14,14,0,0,1-3.128,2.737A17.542,17.542,0,0,1,195.687-.7a19.791,19.791,0,0,1-3.842.935,27.509,27.509,0,0,1-3.791.272A18.635,18.635,0,0,1,181.288-.7a15.146,15.146,0,0,1-5.44-3.57,16.749,16.749,0,0,1-3.638-5.848,22.631,22.631,0,0,1-1.326-8.075,19.31,19.31,0,0,1,1.156-6.715,16.147,16.147,0,0,1,3.315-5.474,15.607,15.607,0,0,1,5.27-3.689,17.359,17.359,0,0,1,7.021-1.36,17.076,17.076,0,0,1,6.086,1.054,13.26,13.26,0,0,1,4.794,3.077,14.253,14.253,0,0,1,3.145,4.964,18.494,18.494,0,0,1,1.139,6.715,5.451,5.451,0,0,1-.408,2.567,1.69,1.69,0,0,1-1.564.663Zm51.136-11.7a2.241,2.241,0,0,1-.714.765,1.849,1.849,0,0,1-.952.221,3,3,0,0,1-1.309-.34q-.7-.34-1.615-.765a14.792,14.792,0,0,0-2.091-.765,10.015,10.015,0,0,0-2.771-.34,6.379,6.379,0,0,0-3.893,1.054,3.282,3.282,0,0,0-1.411,2.754,2.627,2.627,0,0,0,.731,1.887A6.573,6.573,0,0,0,218.3-22.27a18.967,18.967,0,0,0,2.737,1.037q1.53.459,3.111,1t3.111,1.241a10.907,10.907,0,0,1,2.737,1.768,8.212,8.212,0,0,1,1.938,2.567,8.143,8.143,0,0,1,.731,3.6,11.767,11.767,0,0,1-.9,4.641,10.026,10.026,0,0,1-2.669,3.672,12.587,12.587,0,0,1-4.369,2.414,18.97,18.97,0,0,1-6,.867A18.994,18.994,0,0,1,215.2.221a20.771,20.771,0,0,1-3.3-.9,18.25,18.25,0,0,1-2.924-1.36,14.192,14.192,0,0,1-2.363-1.7l1.938-3.2a2.741,2.741,0,0,1,.884-.884,2.478,2.478,0,0,1,1.292-.306,2.716,2.716,0,0,1,1.479.442q.7.442,1.615.952a14.436,14.436,0,0,0,2.159.952,9.5,9.5,0,0,0,3.145.442A8.159,8.159,0,0,0,221.7-5.7a5.432,5.432,0,0,0,1.768-.935,3.51,3.51,0,0,0,1.02-1.343,4.026,4.026,0,0,0,.323-1.581,2.82,2.82,0,0,0-.731-2.006,6.4,6.4,0,0,0-1.938-1.36,18.718,18.718,0,0,0-2.754-1.037q-1.547-.459-3.162-1a29.252,29.252,0,0,1-3.162-1.275,10.777,10.777,0,0,1-2.754-1.853,8.386,8.386,0,0,1-1.938-2.754,9.61,9.61,0,0,1-.731-3.944,10.049,10.049,0,0,1,.85-4.08,9.57,9.57,0,0,1,2.5-3.383,12.41,12.41,0,0,1,4.114-2.312,17.138,17.138,0,0,1,5.695-.867,17.434,17.434,0,0,1,6.562,1.19,14.821,14.821,0,0,1,4.93,3.128Zm29.886,0a2.241,2.241,0,0,1-.714.765,1.849,1.849,0,0,1-.952.221,3,3,0,0,1-1.309-.34q-.7-.34-1.615-.765a14.792,14.792,0,0,0-2.091-.765,10.015,10.015,0,0,0-2.771-.34,6.379,6.379,0,0,0-3.893,1.054,3.282,3.282,0,0,0-1.411,2.754,2.627,2.627,0,0,0,.731,1.887,6.573,6.573,0,0,0,1.938,1.343,18.967,18.967,0,0,0,2.737,1.037q1.53.459,3.111,1t3.111,1.241a10.907,10.907,0,0,1,2.737,1.768,8.213,8.213,0,0,1,1.938,2.567,8.143,8.143,0,0,1,.731,3.6,11.767,11.767,0,0,1-.9,4.641,10.026,10.026,0,0,1-2.669,3.672,12.587,12.587,0,0,1-4.369,2.414,18.97,18.97,0,0,1-6,.867,18.994,18.994,0,0,1-3.519-.323,20.77,20.77,0,0,1-3.3-.9,18.25,18.25,0,0,1-2.924-1.36,14.192,14.192,0,0,1-2.363-1.7l1.938-3.2a2.741,2.741,0,0,1,.884-.884,2.478,2.478,0,0,1,1.292-.306,2.716,2.716,0,0,1,1.479.442q.7.442,1.615.952a14.436,14.436,0,0,0,2.159.952,9.5,9.5,0,0,0,3.145.442,8.159,8.159,0,0,0,2.567-.357,5.432,5.432,0,0,0,1.768-.935,3.51,3.51,0,0,0,1.02-1.343,4.026,4.026,0,0,0,.323-1.581,2.82,2.82,0,0,0-.731-2.006,6.4,6.4,0,0,0-1.938-1.36,18.718,18.718,0,0,0-2.754-1.037q-1.547-.459-3.162-1a29.252,29.252,0,0,1-3.162-1.275,10.777,10.777,0,0,1-2.754-1.853,8.386,8.386,0,0,1-1.938-2.754,9.61,9.61,0,0,1-.731-3.944,10.049,10.049,0,0,1,.85-4.08,9.57,9.57,0,0,1,2.5-3.383,12.41,12.41,0,0,1,4.114-2.312,17.138,17.138,0,0,1,5.695-.867,17.434,17.434,0,0,1,6.562,1.19,14.821,14.821,0,0,1,4.93,3.128Z" transform="translate(621 -245.476)" fill="#1d191f"/>
    <g id="Group_38" data-name="Group 38">
      <g id="Group_34" data-name="Group 34" transform="translate(517 -310)">
        <path id="Rectangle_22" data-name="Rectangle 22" d="M10,0H40a0,0,0,0,1,0,0V20a0,0,0,0,1,0,0H0a0,0,0,0,1,0,0V10A10,10,0,0,1,10,0Z" fill="#e2cdec"/>
        <rect id="Rectangle_23" data-name="Rectangle 23" width="40" height="20" transform="translate(0 20)" fill="#d6c2df"/>
        <rect id="Rectangle_24" data-name="Rectangle 24" width="16" height="16" transform="translate(12 12)" fill="#786d7d"/>
      </g>
      <g id="Group_35" data-name="Group 35" transform="translate(557.153 -310)">
        <path id="Rectangle_27" data-name="Rectangle 27" d="M0,0H30A10,10,0,0,1,40,10V20a0,0,0,0,1,0,0H0a0,0,0,0,1,0,0V0A0,0,0,0,1,0,0Z" transform="translate(-0.153)" fill="#b4ece1"/>
        <rect id="Rectangle_25" data-name="Rectangle 25" width="40" height="20" transform="translate(-0.153 20)" fill="#abe0d6"/>
        <rect id="Rectangle_26" data-name="Rectangle 26" width="15" height="16" transform="translate(12.847 12)" fill="#607d78"/>
      </g>
      <g id="Group_36" data-name="Group 36" transform="translate(517 -269.847)">
        <rect id="Rectangle_22-2" data-name="Rectangle 22" width="40" height="20" transform="translate(0 -0.153)" fill="#fde1af"/>
        <path id="Rectangle_23-2" data-name="Rectangle 23" d="M0,0H40a0,0,0,0,1,0,0V20a0,0,0,0,1,0,0H10A10,10,0,0,1,0,10V0A0,0,0,0,1,0,0Z" transform="translate(0 19.847)" fill="#f0d6a6"/>
        <rect id="Rectangle_24-2" data-name="Rectangle 24" width="16" height="15" transform="translate(12 12.847)" fill="#86785d"/>
      </g>
      <g id="Group_37" data-name="Group 37" transform="translate(557.153 -269.847)">
        <rect id="Rectangle_22-3" data-name="Rectangle 22" width="40" height="20" transform="translate(-0.153 -0.153)" fill="#eec2bc"/>
        <path id="Rectangle_23-3" data-name="Rectangle 23" d="M0,0H40a0,0,0,0,1,0,0V10A10,10,0,0,1,30,20H0a0,0,0,0,1,0,0V0A0,0,0,0,1,0,0Z" transform="translate(-0.153 19.847)" fill="#e2b8b2"/>
        <rect id="Rectangle_24-3" data-name="Rectangle 24" width="16" height="16" transform="translate(11.847 11.847)" fill="#7e6764"/>
      </g>
    </g>
  </g>
</svg>
