<svg xmlns="http://www.w3.org/2000/svg" width="80" height="80" viewBox="0 0 80 80"><g transform="translate(840 -94)"><path d="M10,0H40a0,0,0,0,1,0,0V40a0,0,0,0,1,0,0H0a0,0,0,0,1,0,0V10A10,10,0,0,1,10,0Z" transform="translate(-840 94)" fill="#2f2f2f"/><rect width="16" height="16" transform="translate(-828 106)" fill="#6a6a6a"/><path d="M0,0H30A10,10,0,0,1,40,10V40a0,0,0,0,1,0,0H0a0,0,0,0,1,0,0V0A0,0,0,0,1,0,0Z" transform="translate(-800 94)" fill="#7e7e7e"/><rect width="15" height="16" transform="translate(-787 106)" fill="#4d4d4d"/><path d="M0,0H40a0,0,0,0,1,0,0V40a0,0,0,0,1,0,0H10A10,10,0,0,1,0,30V0A0,0,0,0,1,0,0Z" transform="translate(-840 134)" fill="#4d4d4d"/><rect width="16" height="15" transform="translate(-828 147)" fill="#7e7e7e"/><path d="M0,0H40a0,0,0,0,1,0,0V30A10,10,0,0,1,30,40H0a0,0,0,0,1,0,0V0A0,0,0,0,1,0,0Z" transform="translate(-800 134)" fill="#6a6a6a"/><rect width="16" height="16" transform="translate(-788 146)" fill="#2f2f2f"/></g></svg>