<svg xmlns="http://www.w3.org/2000/svg" width="344.753" height="80" viewBox="0 0 344.753 80"><g transform="translate(-473 173)"><g transform="translate(-44 137)"><g transform="translate(517 -310)"><path d="M10,0H40a0,0,0,0,1,0,0V20a0,0,0,0,1,0,0H0a0,0,0,0,1,0,0V10A10,10,0,0,1,10,0Z" fill="#e2cdec"/><rect width="40" height="20" transform="translate(0 20)" fill="#d6c2df"/><rect width="16" height="16" transform="translate(12 12)" fill="#786d7d"/></g><g transform="translate(557.153 -310)"><path d="M0,0H30A10,10,0,0,1,40,10V20a0,0,0,0,1,0,0H0a0,0,0,0,1,0,0V0A0,0,0,0,1,0,0Z" transform="translate(-0.153)" fill="#b4ece1"/><rect width="40" height="20" transform="translate(-0.153 20)" fill="#abe0d6"/><rect width="15" height="16" transform="translate(12.847 12)" fill="#607d78"/></g><g transform="translate(517 -269.847)"><rect width="40" height="20" transform="translate(0 -0.153)" fill="#fde1af"/><path d="M0,0H40a0,0,0,0,1,0,0V20a0,0,0,0,1,0,0H10A10,10,0,0,1,0,10V0A0,0,0,0,1,0,0Z" transform="translate(0 19.847)" fill="#f0d6a6"/><rect width="16" height="15" transform="translate(12 12.847)" fill="#86785d"/></g><g transform="translate(557.153 -269.847)"><rect width="40" height="20" transform="translate(-0.153 -0.153)" fill="#eec2bc"/><path d="M0,0H40a0,0,0,0,1,0,0V10A10,10,0,0,1,30,20H0a0,0,0,0,1,0,0V0A0,0,0,0,1,0,0Z" transform="translate(-0.153 19.847)" fill="#e2b8b2"/><rect width="16" height="16" transform="translate(11.847 11.847)" fill="#7e6764"/></g></g><path d="M27-7.155V0H3.737V-38.611h8.957V-7.155ZM54.484-27.48V0H49.4a1.932,1.932,0,0,1-2.014-1.378L46.9-2.968a15.946,15.946,0,0,1-1.643,1.391,10.055,10.055,0,0,1-1.815,1.06,10.774,10.774,0,0,1-2.093.689A11.234,11.234,0,0,1,38.9.424a9.621,9.621,0,0,1-3.988-.782,8.206,8.206,0,0,1-2.928-2.186,9.535,9.535,0,0,1-1.8-3.313,13.7,13.7,0,0,1-.61-4.187V-27.48h8.215v17.437a4.8,4.8,0,0,0,.927,3.154,3.35,3.35,0,0,0,2.729,1.113,5.741,5.741,0,0,0,2.531-.57A10.184,10.184,0,0,0,46.269-7.9V-27.48Zm25.758,6.519a4.542,4.542,0,0,1-.715.715,1.58,1.58,0,0,1-.98.265,2.111,2.111,0,0,1-1.1-.291q-.49-.292-1.1-.649a8.342,8.342,0,0,0-1.431-.649,6.16,6.16,0,0,0-2.04-.291,5.717,5.717,0,0,0-2.61.556,4.834,4.834,0,0,0-1.815,1.59,7.266,7.266,0,0,0-1.06,2.531,15.118,15.118,0,0,0-.344,3.379,10.3,10.3,0,0,0,1.524,6.069,4.89,4.89,0,0,0,4.2,2.12,5.872,5.872,0,0,0,2.266-.358,6.866,6.866,0,0,0,1.418-.795q.583-.437,1.073-.808a1.984,1.984,0,0,1,1.232-.371,1.7,1.7,0,0,1,1.484.716l2.385,2.941a12.977,12.977,0,0,1-2.676,2.372A13.426,13.426,0,0,1,77.075-.49,14.84,14.84,0,0,1,74.12.225a21.756,21.756,0,0,1-2.889.2,12.4,12.4,0,0,1-4.81-.954A11.784,11.784,0,0,1,62.394-3.3a13.263,13.263,0,0,1-2.756-4.465,16.727,16.727,0,0,1-1.02-6.042,16.972,16.972,0,0,1,.888-5.552,12.6,12.6,0,0,1,2.624-4.479,12.2,12.2,0,0,1,4.293-2.981A15.043,15.043,0,0,1,72.345-27.9a14.439,14.439,0,0,1,5.671,1.033,13.608,13.608,0,0,1,4.4,3.021ZM94.234-27.48V0H86.019V-27.48Zm.848-7.526a4.342,4.342,0,0,1-.4,1.842,4.848,4.848,0,0,1-1.087,1.51,5.319,5.319,0,0,1-1.6,1.033,4.975,4.975,0,0,1-1.948.384,4.625,4.625,0,0,1-1.882-.384,5.289,5.289,0,0,1-1.55-1.033,4.769,4.769,0,0,1-1.06-1.51,4.469,4.469,0,0,1-.384-1.842,4.625,4.625,0,0,1,.384-1.882,4.882,4.882,0,0,1,1.06-1.537,4.964,4.964,0,0,1,1.55-1.033,4.767,4.767,0,0,1,1.882-.371,5.13,5.13,0,0,1,1.948.371,5,5,0,0,1,1.6,1.033,4.96,4.96,0,0,1,1.087,1.537A4.493,4.493,0,0,1,95.082-35.007Zm21.571,14.893a5.193,5.193,0,0,0-2.014-1.444,6.391,6.391,0,0,0-2.279-.411,4.84,4.84,0,0,0-2.093.451,4.266,4.266,0,0,0-1.656,1.444,7.692,7.692,0,0,0-1.1,2.584,16.052,16.052,0,0,0-.4,3.842,17.8,17.8,0,0,0,.318,3.657,7.534,7.534,0,0,0,.888,2.4,3.446,3.446,0,0,0,1.365,1.312,3.914,3.914,0,0,0,1.775.4,7.1,7.1,0,0,0,1.63-.172,5.729,5.729,0,0,0,1.338-.49,5.556,5.556,0,0,0,1.153-.808,10.991,10.991,0,0,0,1.073-1.126Zm8.215-19.557V0H119.78a1.932,1.932,0,0,1-2.014-1.378l-.636-2.093a16.11,16.11,0,0,1-1.723,1.59A10.833,10.833,0,0,1,113.46-.649a10.3,10.3,0,0,1-2.253.795,11.6,11.6,0,0,1-2.61.278,8.464,8.464,0,0,1-3.975-.954,9.16,9.16,0,0,1-3.153-2.756A13.907,13.907,0,0,1,99.388-7.7a21.428,21.428,0,0,1-.755-5.949,18.556,18.556,0,0,1,.848-5.711,14,14,0,0,1,2.4-4.558,11.137,11.137,0,0,1,3.723-3.008,10.574,10.574,0,0,1,4.8-1.087,9.364,9.364,0,0,1,3.6.61,9.784,9.784,0,0,1,2.65,1.643V-39.67Zm32.2,29.68a1.8,1.8,0,0,1,.636.119,1.729,1.729,0,0,1,.61.411l3.551,3.736a14.741,14.741,0,0,1-5.843,4.6,20.447,20.447,0,0,1-8.308,1.55,19.791,19.791,0,0,1-7.884-1.5,17.062,17.062,0,0,1-5.91-4.134,18.2,18.2,0,0,1-3.723-6.254,23.093,23.093,0,0,1-1.3-7.857,21.749,21.749,0,0,1,1.4-7.937,18.431,18.431,0,0,1,3.948-6.241,17.781,17.781,0,0,1,6.1-4.081,20.4,20.4,0,0,1,7.818-1.458,20.858,20.858,0,0,1,4.094.384,20.011,20.011,0,0,1,3.591,1.06,16.4,16.4,0,0,1,3.074,1.63,16.131,16.131,0,0,1,2.491,2.067l-3.021,4.055a3.847,3.847,0,0,1-.689.676,1.793,1.793,0,0,1-1.113.3,1.988,1.988,0,0,1-.9-.212,9.962,9.962,0,0,1-.9-.517q-.477-.3-1.047-.663a8.032,8.032,0,0,0-1.352-.662,11.169,11.169,0,0,0-1.828-.517,12.477,12.477,0,0,0-2.451-.212,9.874,9.874,0,0,0-4.068.822,8.866,8.866,0,0,0-3.18,2.4,11.091,11.091,0,0,0-2.067,3.869,17.265,17.265,0,0,0-.729,5.234,15.9,15.9,0,0,0,.808,5.273,11.58,11.58,0,0,0,2.2,3.882,9.334,9.334,0,0,0,3.246,2.4,9.706,9.706,0,0,0,3.975.822,19.027,19.027,0,0,0,2.226-.119,10.123,10.123,0,0,0,1.882-.4,7.667,7.667,0,0,0,1.643-.742,10.366,10.366,0,0,0,1.564-1.179,3.133,3.133,0,0,1,.689-.437A1.805,1.805,0,0,1,157.066-9.991Zm52.126-28.62V0h-7.9V-22.207q0-.768.04-1.67t.146-1.828L191.224-5.857a3.37,3.37,0,0,1-1.285,1.4,3.555,3.555,0,0,1-1.842.477h-1.219a3.555,3.555,0,0,1-1.842-.477,3.37,3.37,0,0,1-1.285-1.4L173.5-25.758q.079.954.133,1.868t.053,1.683V0h-7.9V-38.611h6.837q.583,0,1.02.027a2.611,2.611,0,0,1,.782.159,1.779,1.779,0,0,1,.623.411,3.239,3.239,0,0,1,.543.782l9.938,19.583q.53,1.007,1.02,2.094t.941,2.226q.451-1.166.941-2.279t1.047-2.12l9.911-19.5a3.239,3.239,0,0,1,.543-.782,1.779,1.779,0,0,1,.623-.411,2.611,2.611,0,0,1,.782-.159q.437-.026,1.02-.027ZM238-30.767a3.364,3.364,0,0,1-.835.954,1.868,1.868,0,0,1-1.126.318,2.755,2.755,0,0,1-1.312-.384q-.7-.384-1.59-.861a13.2,13.2,0,0,0-2.027-.861,8.111,8.111,0,0,0-2.6-.384,5.588,5.588,0,0,0-3.75,1.073,3.652,3.652,0,0,0-1.232,2.9,2.673,2.673,0,0,0,.742,1.935,6.4,6.4,0,0,0,1.948,1.325,20.878,20.878,0,0,0,2.756,1.02q1.55.464,3.167,1.034a28.322,28.322,0,0,1,3.167,1.338,10.561,10.561,0,0,1,2.756,1.961,9.152,9.152,0,0,1,1.948,2.9,10.318,10.318,0,0,1,.742,4.121,13.427,13.427,0,0,1-.927,5.008,11.727,11.727,0,0,1-2.69,4.068A12.485,12.485,0,0,1,232.789-.57a16.26,16.26,0,0,1-5.87.994,18.814,18.814,0,0,1-3.67-.371,21.8,21.8,0,0,1-3.617-1.047,20.977,20.977,0,0,1-3.286-1.6,13.962,13.962,0,0,1-2.676-2.067l2.65-4.187a2.653,2.653,0,0,1,.835-.755,2.178,2.178,0,0,1,1.126-.3,3.017,3.017,0,0,1,1.6.5q.808.5,1.828,1.113a14.881,14.881,0,0,0,2.345,1.113,8.794,8.794,0,0,0,3.127.5,5.953,5.953,0,0,0,3.789-1.073,4.086,4.086,0,0,0,1.352-3.405,3.218,3.218,0,0,0-.742-2.2,5.732,5.732,0,0,0-1.948-1.4,17.945,17.945,0,0,0-2.743-.98q-1.537-.424-3.154-.941a23.072,23.072,0,0,1-3.154-1.272,9.952,9.952,0,0,1-2.743-1.987,9.3,9.3,0,0,1-1.948-3.074,12.205,12.205,0,0,1-.742-4.545,10.784,10.784,0,0,1,.874-4.24,10.945,10.945,0,0,1,2.571-3.684,12.639,12.639,0,0,1,4.16-2.584,15.366,15.366,0,0,1,5.645-.967,21.166,21.166,0,0,1,3.458.278,18.179,18.179,0,0,1,3.193.821,17.536,17.536,0,0,1,2.822,1.3,13.012,13.012,0,0,1,2.345,1.709Z" transform="translate(577 -112)" fill="#1d191f"/></g></svg>