<svg xmlns="http://www.w3.org/2000/svg" width="21.426" height="21.426" viewBox="0 0 21.426 21.426"><path d="M20.754,36.684l-4.012-4.012A2.3,2.3,0,0,0,15.119,32H2.3A2.3,2.3,0,0,0,0,34.3V51.13a2.3,2.3,0,0,0,2.3,2.3H19.13a2.3,2.3,0,0,0,2.3-2.3V38.307a2.3,2.3,0,0,0-.672-1.623ZM10.713,50.365A3.061,3.061,0,1,1,13.774,47.3,3.061,3.061,0,0,1,10.713,50.365ZM15.3,35.8v4.807a.574.574,0,0,1-.574.574H3.635a.574.574,0,0,1-.574-.574V35.635a.574.574,0,0,1,.574-.574H14.564a.574.574,0,0,1,.406.168l.166.166a.574.574,0,0,1,.168.406Z" transform="translate(0 -32)"/></svg>