<svg xmlns="http://www.w3.org/2000/svg" width="18" height="18" viewBox="0 0 18 18"><path d="M7.194.142a8.953,8.953,0,0,0-7,6.975c-1.3,6.574,4.63,11.475,9.1,10.783a2.219,2.219,0,0,0,1.494-3.224,2.379,2.379,0,0,1,2.141-3.459h2.8a2.3,2.3,0,0,0,2.282-2.3A9.007,9.007,0,0,0,7.194.142ZM3.387,11.216a1.125,1.125,0,1,1,1.125-1.125A1.124,1.124,0,0,1,3.387,11.216Zm1.125-4.5A1.125,1.125,0,1,1,5.637,5.591,1.124,1.124,0,0,1,4.512,6.716Zm4.5-2.25a1.125,1.125,0,1,1,1.125-1.125A1.124,1.124,0,0,1,9.012,4.466Zm4.5,2.25a1.125,1.125,0,1,1,1.125-1.125A1.124,1.124,0,0,1,13.512,6.716Z" transform="translate(-0.012 0.035)"/></svg>