<svg xmlns="http://www.w3.org/2000/svg" width="1600" height="1200"><defs><clipPath id="a"><path transform="translate(5069 -6834)" fill="#060039" d="M0 0h1600v1197H0z"/></clipPath></defs><path d="M0 0h1600v1200H0Z" fill="#1a1641"/><g transform="translate(-5069 6837)" clip-path="url(#a)"><g transform="translate(5051.1 -6955.5)" fill="none" stroke-linecap="round" stroke-linejoin="round" stroke-miterlimit="10" stroke-width="10.95"><path d="M1635.79 1018.8a58.79 58.79 0 1 1-117.57 0" stroke="#44ab96"/><path d="M1635.79 158.07a73.94 73.94 0 0 1 0-147.87" stroke="#e53855"/><path d="M574.57 70.27a61.34 61.34 0 0 0 122.68 0V1.02" stroke="#44ab96"/><path d="M140.3 1439.97c-76.36 0-138.26-61.4-138.26-137.16s61.9-137.16 138.26-137.16h126.54" stroke="#ffb017"/><path d="M131.87 1346.15c-25.4 0-46-19.86-46-44.36s20.6-44.36 46-44.36h49.09M271.95 1.02H71.18C31.87 1.02 0 32.07 0 70.37" stroke="#44ab96"/><path d="M1143 3.06h257.38a91.01 91.01 0 0 1 91.25 90.76" stroke="#4484ab"/><path d="M1635.79 471.15V299.5a61.34 61.34 0 0 0-122.69 0v26.57" stroke="#da774a"/><ellipse cx="40.9" cy="40.79" rx="40.9" ry="40.79" transform="translate(560.26 360)" stroke="#44ab96"/><ellipse cx="59.3" cy="58.64" rx="59.3" ry="58.64" transform="translate(654.32 1160.55)" stroke="#e53855"/><ellipse cx="64.41" cy="64.25" rx="64.41" ry="64.25" transform="translate(123.7 197.84)" stroke="#44ab96"/><path d="M188.63 401.8c79.33 0 143.64-63.23 143.64-141.24s-64.3-141.24-143.64-141.24S44.98 182.55 44.98 260.56" stroke="#ffb017"/><path d="M1340.54 1248.72c-21.82 81.4 25.39 164.75 105.44 186.2s162.66-27.18 184.48-108.58-25.39-164.75-105.44-186.19M335.85 422.2a58.64 58.64 0 1 0 58.78 58.64V422.2" stroke="#44ab96"/><path d="M353.74 79.04a77.7 77.7 0 1 0 77.7-78.02h-77.7" stroke="#e53855"/><path d="M73.1 883.75c-37.55 0-67.99-30.04-67.99-67.1s30.44-67.09 67.99-67.09 67.99 30.04 67.99 67.1v205.2M1494.69 887.24c0 34.35 27.47 62.2 61.35 62.2s61.35-27.85 61.35-62.2-27.46-62.21-61.34-62.21h-205.5" stroke="#44ab96"/><path d="M987.6 142.56c-36.13 0-65.42 28.81-65.42 64.35s29.3 64.36 65.43 64.36 65.43-28.81 65.43-64.35V0" stroke="#4484ab"/><path d="M935.38 1380.82a58.83 58.83 0 1 1 58.83 59.16h-93.5" stroke="#44ab96"/><path d="M1113.87 573.72a58.35 58.35 0 1 1-58.79 58.35V414.04M63.9 579.98c-32.47 0-58.79 25.86-58.79 57.76s26.32 57.77 58.79 57.77 58.78-25.86 58.78-57.77V401.81" stroke="#da774a"/><path d="M704.1 401.8c0-58-46.39-105.04-103.61-105.04S496.87 343.8 496.87 401.81s46.4 105.04 103.62 105.04h271.59" stroke="#ffb017"/><path d="M1532.16 741.4c57.24 0 103.63-47.03 103.63-105.04s-46.39-105.04-103.63-105.04h-271.58" stroke="#44ab96"/><path d="M1131.76 178.98c0-54.36 43.7-98.41 97.6-98.41h100.27c53.9 0 97.6 44.05 97.6 98.4h0c0 54.36-43.7 98.42-97.6 98.42h-100.27c-53.9 0-97.6-44.06-97.6-98.41Z" stroke="#da774a"/><path d="M272.46 888.26a60.7 60.7 0 0 1-60.83-60.58V655.13a60.7 60.7 0 0 1 60.83-60.58h0a60.7 60.7 0 0 1 60.83 60.58v172.55a60.7 60.7 0 0 1-60.83 60.58Z" stroke="#ffb017"/><path d="M846.52 811.26v-91.1a47.31 47.31 0 0 1 47.54-47.08h0a47.31 47.31 0 0 1 47.54 47.08v182.2a47.31 47.31 0 0 1-47.54 47.09h0a47.31 47.31 0 0 1-47.54-47.09v-22" stroke="#e53855"/><path d="M934.44 324.23v7.94a82.09 82.09 0 0 1-82.3 81.87h0a82.09 82.09 0 0 1-82.3-81.87V82.9a82.09 82.09 0 0 1 82.3-81.87h0a82.09 82.09 0 0 1 82.3 81.87v2.45M73.35 970.86h-4.91A63.28 63.28 0 0 0 5.1 1034.1h0a63.28 63.28 0 0 0 63.33 63.23h146.32a63.28 63.28 0 0 0 63.32-63.23h0a63.28 63.28 0 0 0-63.32-63.23h-4.92" stroke="#ffb017"/><path d="M767.8 673.08V909.3c0 70.61 57.9 127.85 129.33 127.85s129.33-57.24 129.33-127.85V853.5M508.12 1072.84h212.45c80.85 0 146.4 65.75 146.4 146.86s-65.55 146.85-146.4 146.85h-63.91" stroke="#44ab96"/><path d="M599.1 714.89h-50.28a61.19 61.19 0 1 1 0-122.38H649.4a61.17 61.17 0 0 1 61.16 61.19v5.44a55.74 55.74 0 0 1-55.72 55.75" stroke="#4484ab"/><path d="M1113.87 481.35h57.44c38.57 0 69.85-29.45 69.85-65.78s-31.28-65.77-69.85-65.77h-114.88c-38.57 0-69.85 29.45-69.85 65.77M690.1 207.02H552.4c-87.13 0-157.77 70.78-157.77 158.07" stroke="#44ab96"/><path d="M1481.92 1230.75c32.47 0 58.79 26.07 58.79 58.21s-26.32 58.21-58.79 58.21-58.78-26.07-58.78-58.2v-379.3" stroke="#e53855"/><path d="M1041.8 1268.65c0-59.7 47.89-108.1 106.97-108.1h188.49" stroke="#44ab96"/><path d="M763.7 592.51h100.58a122.34 122.34 0 0 0 122.3-122.38M1350.55 911.71v54.82c0 55.33-44.98 100.2-100.47 100.2h-78.45" stroke="#4484ab"/><path d="M1540.7 638.4h-85.88c-62.1 0-112.45 50.69-112.45 113.2" stroke="#da774a"/><path d="M222.88 1439.97v-92.92c0-53.5 41.89-98.32 98.14-110.02M45.5 332.46V520.1M445.75 1439.47h387.48M1112.85 763.84v155.01M955.4 1185.02v63.23" stroke="#44ab96"/><path d="M1514.13 397.65v20.68a52.97 52.97 0 0 1-53.1 52.82h0a52.97 52.97 0 0 1-53.12-52.82v-17.14a52.56 52.56 0 0 0-52.7-52.41h0a52.57 52.57 0 0 0-52.71 52.41v21.1" stroke="#e53855"/><path d="M1113.36 1311.44a74.53 74.53 0 0 1 74.63-74.4h0a74.53 74.53 0 0 1 74.63 74.42v54.1a74.53 74.53 0 0 1-74.63 74.41h0a74.53 74.53 0 0 1-74.63-74.42Z" stroke="#4484ab"/><g stroke="#da774a"><path d="M409.73 599.65v65.56c0 79.85 64.81 144.59 144.78 144.59h57.67a87.12 87.12 0 0 1 87.12 87h0M699.3 984.66H515.85c-46.24 0-83.73 37.2-83.73 83.08s37.49 83.07 83.73 83.07h75.71M386.3 1439.97h-10.95a58.34 58.34 0 1 1 0-116.68H505.8a86.26 86.26 0 0 0 86.32-86.2"/></g></g></g></svg>