<svg xmlns="http://www.w3.org/2000/svg" width="89.056" height="25" viewBox="0 0 89.056 25"><g transform="translate(2963 -2642)"><g transform="translate(-2963 2642)"><path d="M12,0h0a0,0,0,0,1,0,0V12a0,0,0,0,1,0,0H0a0,0,0,0,1,0,0v0A12,12,0,0,1,12,0Z" fill="#b9e2bf"/><path d="M0,0H1A12,12,0,0,1,13,12v0a0,0,0,0,1,0,0H0a0,0,0,0,1,0,0V0A0,0,0,0,1,0,0Z" transform="translate(12)" fill="#c5efcb"/><path d="M0,0H12a0,0,0,0,1,0,0V13a0,0,0,0,1,0,0h0A12,12,0,0,1,0,1V0A0,0,0,0,1,0,0Z" transform="translate(0 12)" fill="#c5efcb"/><path d="M0,0H13a0,0,0,0,1,0,0V8a5,5,0,0,1-5,5H0a0,0,0,0,1,0,0V0A0,0,0,0,1,0,0Z" transform="translate(12 12)" fill="#b9e2bf"/></g><path d="M14.208-25.123v3.22H3.736V-39.281H7.768v14.157Zm12.368-9.148V-21.9h-2.29a.869.869,0,0,1-.906-.62l-.215-.716a7.176,7.176,0,0,1-.739.626,4.526,4.526,0,0,1-.817.477,4.849,4.849,0,0,1-.942.31,5.056,5.056,0,0,1-1.1.113,4.33,4.33,0,0,1-1.8-.352,3.693,3.693,0,0,1-1.318-.984,4.292,4.292,0,0,1-.811-1.491,6.166,6.166,0,0,1-.274-1.884v-7.848h3.7v7.848A2.158,2.158,0,0,0,19.48-25a1.508,1.508,0,0,0,1.228.5,2.584,2.584,0,0,0,1.139-.256,4.584,4.584,0,0,0,1.032-.7v-8.814ZM38.17-31.337a2.045,2.045,0,0,1-.322.322.711.711,0,0,1-.441.119.95.95,0,0,1-.495-.131l-.495-.292a3.754,3.754,0,0,0-.644-.292,2.772,2.772,0,0,0-.918-.131,2.573,2.573,0,0,0-1.175.25,2.176,2.176,0,0,0-.817.716,3.27,3.27,0,0,0-.477,1.139,6.8,6.8,0,0,0-.155,1.521,4.634,4.634,0,0,0,.686,2.731,2.2,2.2,0,0,0,1.89.954,2.643,2.643,0,0,0,1.02-.161,3.09,3.09,0,0,0,.638-.358l.483-.364a.893.893,0,0,1,.555-.167.764.764,0,0,1,.668.322l1.073,1.324a5.84,5.84,0,0,1-1.2,1.067,6.043,6.043,0,0,1-1.294.644,6.679,6.679,0,0,1-1.33.322,9.792,9.792,0,0,1-1.3.089,5.579,5.579,0,0,1-2.165-.429,5.3,5.3,0,0,1-1.813-1.246A5.969,5.969,0,0,1,28.9-25.4a7.528,7.528,0,0,1-.459-2.719,7.639,7.639,0,0,1,.4-2.5,5.673,5.673,0,0,1,1.181-2.016,5.49,5.49,0,0,1,1.932-1.342,6.771,6.771,0,0,1,2.666-.489A6.5,6.5,0,0,1,37.168-34a6.125,6.125,0,0,1,1.98,1.36Zm6.3-2.934V-21.9h-3.7V-34.271Zm.382-3.387a1.954,1.954,0,0,1-.179.829,2.182,2.182,0,0,1-.489.68,2.394,2.394,0,0,1-.722.465,2.239,2.239,0,0,1-.877.173,2.082,2.082,0,0,1-.847-.173,2.381,2.381,0,0,1-.7-.465,2.147,2.147,0,0,1-.477-.68,2.011,2.011,0,0,1-.173-.829,2.082,2.082,0,0,1,.173-.847,2.2,2.2,0,0,1,.477-.692,2.234,2.234,0,0,1,.7-.465,2.146,2.146,0,0,1,.847-.167,2.309,2.309,0,0,1,.877.167,2.251,2.251,0,0,1,.722.465,2.233,2.233,0,0,1,.489.692A2.022,2.022,0,0,1,44.849-37.659Zm9.709,6.7a2.337,2.337,0,0,0-.906-.65,2.876,2.876,0,0,0-1.026-.185,2.179,2.179,0,0,0-.942.2,1.92,1.92,0,0,0-.745.65,3.462,3.462,0,0,0-.495,1.163,7.224,7.224,0,0,0-.179,1.729,8.011,8.011,0,0,0,.143,1.646,3.391,3.391,0,0,0,.4,1.079,1.551,1.551,0,0,0,.614.59,1.762,1.762,0,0,0,.8.179,3.2,3.2,0,0,0,.734-.078,2.579,2.579,0,0,0,.6-.221,2.5,2.5,0,0,0,.519-.364,4.947,4.947,0,0,0,.483-.507Zm3.7-8.8V-21.9h-2.29a.869.869,0,0,1-.906-.62l-.286-.942A7.251,7.251,0,0,1,54-22.75a4.876,4.876,0,0,1-.877.555,4.636,4.636,0,0,1-1.014.358,5.219,5.219,0,0,1-1.175.125,3.81,3.81,0,0,1-1.789-.429,4.123,4.123,0,0,1-1.419-1.24,6.259,6.259,0,0,1-.936-1.986,9.644,9.644,0,0,1-.34-2.678,8.351,8.351,0,0,1,.382-2.57,6.3,6.3,0,0,1,1.079-2.051,5.012,5.012,0,0,1,1.676-1.354,4.759,4.759,0,0,1,2.159-.489,4.215,4.215,0,0,1,1.622.274,4.4,4.4,0,0,1,1.193.739v-6.262Z" transform="translate(-2932.199 2685.507)" fill="#fff"/></g></svg>