<svg xmlns="http://www.w3.org/2000/svg" width="197.868" height="56" viewBox="0 0 197.868 56"><g transform="translate(2963 -2642)"><path d="M10,0H28a0,0,0,0,1,0,0V28a0,0,0,0,1,0,0H0a0,0,0,0,1,0,0V10A10,10,0,0,1,10,0Z" transform="translate(-2963 2642)" fill="#e9df1e"/><path d="M0,0H18A10,10,0,0,1,28,10V28a0,0,0,0,1,0,0H0a0,0,0,0,1,0,0V0A0,0,0,0,1,0,0Z" transform="translate(-2935 2642)" fill="#f8ed21"/><path d="M0,0H28a0,0,0,0,1,0,0V28a0,0,0,0,1,0,0H10A10,10,0,0,1,0,18V0A0,0,0,0,1,0,0Z" transform="translate(-2963 2670)" fill="#f8ed21"/><path d="M0,0H28a0,0,0,0,1,0,0V18A10,10,0,0,1,18,28H0a0,0,0,0,1,0,0V0A0,0,0,0,1,0,0Z" transform="translate(-2935 2670)" fill="#e9df1e"/><path d="M27-7.155V0H3.737V-38.611h8.957V-7.155ZM54.484-27.48V0H49.4a1.932,1.932,0,0,1-2.014-1.378L46.9-2.968a15.946,15.946,0,0,1-1.643,1.391,10.055,10.055,0,0,1-1.815,1.06,10.774,10.774,0,0,1-2.093.689A11.234,11.234,0,0,1,38.9.424a9.621,9.621,0,0,1-3.988-.782,8.206,8.206,0,0,1-2.928-2.186,9.535,9.535,0,0,1-1.8-3.313,13.7,13.7,0,0,1-.61-4.187V-27.48h8.215v17.437a4.8,4.8,0,0,0,.927,3.154,3.35,3.35,0,0,0,2.729,1.113,5.741,5.741,0,0,0,2.531-.57A10.184,10.184,0,0,0,46.269-7.9V-27.48Zm25.758,6.519a4.542,4.542,0,0,1-.715.715,1.58,1.58,0,0,1-.98.265,2.111,2.111,0,0,1-1.1-.291q-.49-.292-1.1-.649a8.342,8.342,0,0,0-1.431-.649,6.16,6.16,0,0,0-2.04-.291,5.717,5.717,0,0,0-2.61.556,4.834,4.834,0,0,0-1.815,1.59,7.266,7.266,0,0,0-1.06,2.531,15.118,15.118,0,0,0-.344,3.379,10.3,10.3,0,0,0,1.524,6.069,4.89,4.89,0,0,0,4.2,2.12,5.872,5.872,0,0,0,2.266-.358,6.866,6.866,0,0,0,1.418-.795q.583-.437,1.073-.808a1.984,1.984,0,0,1,1.232-.371,1.7,1.7,0,0,1,1.484.716l2.385,2.941a12.977,12.977,0,0,1-2.676,2.372A13.426,13.426,0,0,1,77.075-.49,14.84,14.84,0,0,1,74.12.225a21.756,21.756,0,0,1-2.889.2,12.4,12.4,0,0,1-4.81-.954A11.784,11.784,0,0,1,62.394-3.3a13.263,13.263,0,0,1-2.756-4.465,16.727,16.727,0,0,1-1.02-6.042,16.972,16.972,0,0,1,.888-5.552,12.6,12.6,0,0,1,2.624-4.479,12.2,12.2,0,0,1,4.293-2.981A15.043,15.043,0,0,1,72.345-27.9a14.439,14.439,0,0,1,5.671,1.033,13.608,13.608,0,0,1,4.4,3.021ZM94.234-27.48V0H86.019V-27.48Zm.848-7.526a4.342,4.342,0,0,1-.4,1.842,4.848,4.848,0,0,1-1.087,1.51,5.319,5.319,0,0,1-1.6,1.033,4.975,4.975,0,0,1-1.948.384,4.625,4.625,0,0,1-1.882-.384,5.289,5.289,0,0,1-1.55-1.033,4.769,4.769,0,0,1-1.06-1.51,4.469,4.469,0,0,1-.384-1.842,4.625,4.625,0,0,1,.384-1.882,4.882,4.882,0,0,1,1.06-1.537,4.964,4.964,0,0,1,1.55-1.033,4.767,4.767,0,0,1,1.882-.371,5.13,5.13,0,0,1,1.948.371,5,5,0,0,1,1.6,1.033,4.96,4.96,0,0,1,1.087,1.537A4.493,4.493,0,0,1,95.082-35.007Zm21.571,14.893a5.193,5.193,0,0,0-2.014-1.444,6.391,6.391,0,0,0-2.279-.411,4.84,4.84,0,0,0-2.093.451,4.266,4.266,0,0,0-1.656,1.444,7.692,7.692,0,0,0-1.1,2.584,16.052,16.052,0,0,0-.4,3.842,17.8,17.8,0,0,0,.318,3.657,7.534,7.534,0,0,0,.888,2.4,3.446,3.446,0,0,0,1.365,1.312,3.914,3.914,0,0,0,1.775.4,7.1,7.1,0,0,0,1.63-.172,5.729,5.729,0,0,0,1.338-.49,5.556,5.556,0,0,0,1.153-.808,10.991,10.991,0,0,0,1.073-1.126Zm8.215-19.557V0H119.78a1.932,1.932,0,0,1-2.014-1.378l-.636-2.093a16.11,16.11,0,0,1-1.723,1.59A10.833,10.833,0,0,1,113.46-.649a10.3,10.3,0,0,1-2.253.795,11.6,11.6,0,0,1-2.61.278,8.464,8.464,0,0,1-3.975-.954,9.16,9.16,0,0,1-3.153-2.756A13.907,13.907,0,0,1,99.388-7.7a21.428,21.428,0,0,1-.755-5.949,18.556,18.556,0,0,1,.848-5.711,14,14,0,0,1,2.4-4.558,11.137,11.137,0,0,1,3.723-3.008,10.574,10.574,0,0,1,4.8-1.087,9.364,9.364,0,0,1,3.6.61,9.784,9.784,0,0,1,2.65,1.643V-39.67Z" transform="translate(-2890 2690)" fill="#fff"/></g></svg>