<svg xmlns="http://www.w3.org/2000/svg" width="185.424" height="56" viewBox="0 0 185.424 56"><g transform="translate(-2935 -9938)"><g transform="translate(5898 7296)"><path d="M28,0h0a0,0,0,0,1,0,0V28a0,0,0,0,1,0,0H0a0,0,0,0,1,0,0v0A28,28,0,0,1,28,0Z" transform="translate(-2963 2642)" fill="#b9e2bf"/><path d="M0,0H0A28,28,0,0,1,28,28v0a0,0,0,0,1,0,0H0a0,0,0,0,1,0,0V0A0,0,0,0,1,0,0Z" transform="translate(-2935 2642)" fill="#c5efcb"/><path d="M0,0H28a0,0,0,0,1,0,0V28a0,0,0,0,1,0,0h0A28,28,0,0,1,0,0V0A0,0,0,0,1,0,0Z" transform="translate(-2963 2670)" fill="#c5efcb"/><path d="M0,0H28a0,0,0,0,1,0,0V18A10,10,0,0,1,18,28H0a0,0,0,0,1,0,0V0A0,0,0,0,1,0,0Z" transform="translate(-2935 2670)" fill="#b9e2bf"/></g><path d="M2.88,0V-36.48H12V0ZM24.96.48a7.638,7.638,0,0,1-4.488-1.2,6.688,6.688,0,0,1-2.448-3.144,11.516,11.516,0,0,1-.744-4.152V-25.44H26.3v15.168a3.993,3.993,0,0,0,.72,2.424,2.663,2.663,0,0,0,2.3.984,2.538,2.538,0,0,0,2.3-1.032,4.256,4.256,0,0,0,.672-2.376V-25.44h9.12V0H32.3V-3.6h-.288a8,8,0,0,1-2.784,3A7.914,7.914,0,0,1,24.96.48Zm34.752,0a15.474,15.474,0,0,1-6.1-1.1,11.76,11.76,0,0,1-4.272-3,12.891,12.891,0,0,1-2.52-4.248,14.309,14.309,0,0,1-.84-4.848,14.309,14.309,0,0,1,.84-4.848,12.891,12.891,0,0,1,2.52-4.248,11.76,11.76,0,0,1,4.272-3,15.474,15.474,0,0,1,6.1-1.1,15.019,15.019,0,0,1,6,1.032,10.492,10.492,0,0,1,3.7,2.544A11.175,11.175,0,0,1,71.4-19.3a11.788,11.788,0,0,1,.816,2.568l.168,1.032h-8.4l-.12-.48a3.772,3.772,0,0,0-.528-1.1,3.667,3.667,0,0,0-1.2-1.1A4.1,4.1,0,0,0,60-18.864a4.145,4.145,0,0,0-3.672,1.8A7.54,7.54,0,0,0,55.1-12.72a7.54,7.54,0,0,0,1.224,4.344A4.145,4.145,0,0,0,60-6.576a4.1,4.1,0,0,0,2.136-.48,3.667,3.667,0,0,0,1.2-1.1,3.772,3.772,0,0,0,.528-1.1l.12-.48h8.4l-.168,1.032A11.389,11.389,0,0,1,71.4-6.168,11.677,11.677,0,0,1,69.408-3.12a10.327,10.327,0,0,1-3.7,2.568A15.019,15.019,0,0,1,59.712.48ZM82.128-27.984a5.04,5.04,0,0,1-3.72-1.464,4.753,4.753,0,0,1-1.464-3.48,4.786,4.786,0,0,1,1.464-3.552,5.085,5.085,0,0,1,3.72-1.44,5.167,5.167,0,0,1,3.744,1.44,4.747,4.747,0,0,1,1.488,3.552,4.716,4.716,0,0,1-1.488,3.48A5.121,5.121,0,0,1,82.128-27.984ZM77.568,0V-25.44h9.12V0Zm25.3.48A9.817,9.817,0,0,1,98.04-.648a10.3,10.3,0,0,1-3.408-3.024,13.563,13.563,0,0,1-2.04-4.248,17.388,17.388,0,0,1-.672-4.8,17.388,17.388,0,0,1,.672-4.8,13.563,13.563,0,0,1,2.04-4.248,10.3,10.3,0,0,1,3.408-3.024,9.817,9.817,0,0,1,4.824-1.128,9.171,9.171,0,0,1,3.216.5,8.926,8.926,0,0,1,2.184,1.128,6.977,6.977,0,0,1,1.248,1.128l.408.5h.384V-36.48h9.12V0H110.3V-2.784h-.384l-.408.5a6.977,6.977,0,0,1-1.248,1.128A8.926,8.926,0,0,1,106.08-.024,9.171,9.171,0,0,1,102.864.48Zm3.024-7.248a3.961,3.961,0,0,0,2.64-.888,5.454,5.454,0,0,0,1.584-2.256,7.736,7.736,0,0,0,.528-2.808,7.736,7.736,0,0,0-.528-2.808,5.454,5.454,0,0,0-1.584-2.256,3.961,3.961,0,0,0-2.64-.888,3.961,3.961,0,0,0-2.64.888,5.454,5.454,0,0,0-1.584,2.256,7.736,7.736,0,0,0-.528,2.808,7.736,7.736,0,0,0,.528,2.808,5.454,5.454,0,0,0,1.584,2.256A3.961,3.961,0,0,0,105.888-6.768Z" transform="translate(3001 9984.92)" fill="#fff"/></g></svg>