<svg xmlns="http://www.w3.org/2000/svg" width="25" height="25" viewBox="0 0 25 25"><path d="M12,0h0a0,0,0,0,1,0,0V12a0,0,0,0,1,0,0H0a0,0,0,0,1,0,0v0A12,12,0,0,1,12,0Z" fill="#b9e2bf"/><path d="M0,0H1A12,12,0,0,1,13,12v0a0,0,0,0,1,0,0H0a0,0,0,0,1,0,0V0A0,0,0,0,1,0,0Z" transform="translate(12)" fill="#c5efcb"/><path d="M0,0H12a0,0,0,0,1,0,0V13a0,0,0,0,1,0,0h0A12,12,0,0,1,0,1V0A0,0,0,0,1,0,0Z" transform="translate(0 12)" fill="#c5efcb"/><path d="M0,0H13a0,0,0,0,1,0,0V8a5,5,0,0,1-5,5H0a0,0,0,0,1,0,0V0A0,0,0,0,1,0,0Z" transform="translate(12 12)" fill="#b9e2bf"/></svg>