<svg xmlns="http://www.w3.org/2000/svg" width="80.784" height="16.72" viewBox="0 0 80.784 16.72"><path d="M1.826,0V-16.28H3.52V-1.518h8.514V0ZM25.5.22a6.539,6.539,0,0,1-3.3-.77,5.053,5.053,0,0,1-2.035-2.134,6.9,6.9,0,0,1-.693-3.168V-16.28h1.694V-5.852a4.743,4.743,0,0,0,1.078,3.223A4.079,4.079,0,0,0,25.5-1.386a4.073,4.073,0,0,0,3.267-1.243,4.774,4.774,0,0,0,1.067-3.223V-16.28h1.694V-5.852a6.9,6.9,0,0,1-.693,3.168A5.053,5.053,0,0,1,28.8-.55,6.539,6.539,0,0,1,25.5.22Zm20.834,0A7.337,7.337,0,0,1,43.01-.5a6.923,6.923,0,0,1-2.376-1.914,8.42,8.42,0,0,1-1.419-2.684,9.98,9.98,0,0,1-.473-3.047,10.085,10.085,0,0,1,.473-3.058,8.4,8.4,0,0,1,1.419-2.695,6.811,6.811,0,0,1,2.376-1.9,7.433,7.433,0,0,1,3.322-.7,7.915,7.915,0,0,1,2.651.4,5.868,5.868,0,0,1,1.859,1.034,6.384,6.384,0,0,1,1.21,1.342,6.522,6.522,0,0,1,.693,1.342,7.3,7.3,0,0,1,.308,1.034l.077.4H51.414l-.088-.4a4.8,4.8,0,0,0-.374-.99A4.767,4.767,0,0,0,50.1-13.53a4.405,4.405,0,0,0-1.474-.99,5.8,5.8,0,0,0-2.3-.4,5.455,5.455,0,0,0-2.552.572,5.369,5.369,0,0,0-1.837,1.551,7.113,7.113,0,0,0-1.111,2.178,8.263,8.263,0,0,0-.374,2.475,8.3,8.3,0,0,0,.374,2.464,7.089,7.089,0,0,0,1.111,2.189A5.369,5.369,0,0,0,43.78-1.936a5.455,5.455,0,0,0,2.552.572,5.8,5.8,0,0,0,2.3-.4A4.405,4.405,0,0,0,50.1-2.75a4.767,4.767,0,0,0,.847-1.188,4.71,4.71,0,0,0,.374-1l.088-.407H53.13l-.077.407a6.78,6.78,0,0,1-.308,1.034,6.913,6.913,0,0,1-.693,1.342,6.253,6.253,0,0,1-1.21,1.353A5.868,5.868,0,0,1,48.983-.176,7.915,7.915,0,0,1,46.332.22ZM60.324,0V-16.28h1.694V0Zm9.482,0V-16.28h5.082a7.785,7.785,0,0,1,3.388.693,6.922,6.922,0,0,1,2.409,1.859,8.154,8.154,0,0,1,1.441,2.618,9.333,9.333,0,0,1,.484,2.97,9.333,9.333,0,0,1-.484,2.97,8.154,8.154,0,0,1-1.441,2.618A6.922,6.922,0,0,1,78.276-.693,7.785,7.785,0,0,1,74.888,0Zm5.038-14.762H71.5V-1.518h3.344A5.906,5.906,0,0,0,77.5-2.079a5.543,5.543,0,0,0,1.892-1.507A6.492,6.492,0,0,0,80.52-5.72a8.014,8.014,0,0,0,.374-2.42,8.014,8.014,0,0,0-.374-2.42,6.492,6.492,0,0,0-1.133-2.134A5.543,5.543,0,0,0,77.5-14.2,5.906,5.906,0,0,0,74.844-14.762Z" transform="translate(-1.826 16.5)" opacity="0.83"/></svg>