<svg xmlns="http://www.w3.org/2000/svg" width="162.5" height="170.435" viewBox="0 0 162.5 170.435"><path d="M63.007,0c34.8,0,63.007,4.983,63.007,11.131S97.8,22.262,63.007,22.262,0,17.278,0,11.131,28.209,0,63.007,0Z" transform="translate(0 148.173)" fill="#f2f2f2"/><circle cx="61.5" cy="61.5" r="61.5" transform="translate(39.5)" fill="#1a1641"/><circle cx="50.834" cy="50.834" r="50.834" transform="translate(50.467 10.743)" fill="#fff" opacity="0.05"/><circle cx="41.663" cy="41.663" r="41.663" transform="translate(59.638 19.914)" fill="#fff" opacity="0.05"/><circle cx="29.871" cy="29.871" r="29.871" transform="translate(71.429 31.706)" fill="#fff" opacity="0.05"/><path d="M385.793,361.232s-4.841,13.627-2.69,18.468a60.113,60.113,0,0,0,5.558,9.5S387.407,362.129,385.793,361.232Z" transform="translate(-345.524 -294.144)" fill="#d0cde1"/><path d="M385.793,361.232s-4.841,13.627-2.69,18.468a60.113,60.113,0,0,0,5.558,9.5S387.407,362.129,385.793,361.232Z" transform="translate(-345.524 -294.144)" opacity="0.1"/><path d="M389.876,514.35a29.057,29.057,0,0,1-.538,3.586c-.179.179.179.538,0,1.076s-.359,1.255,0,1.434-1.972,15.958-1.972,15.958-5.738,7.531-3.407,19.365l.717,12.013s5.558.359,5.558-1.614a32.849,32.849,0,0,1-.359-3.407c0-1.076.9-1.076.359-1.614s-.538-.9-.538-.9.9-.717.717-.9,1.614-12.91,1.614-12.91S394,544.473,394,543.4v-1.076s.9-2.331.9-2.51,4.841-11.117,4.841-11.117l1.972,7.889,2.152,11.3s1.076,10.22,3.227,14.165c0,0,3.765,12.91,3.765,12.551s6.276-1.255,6.1-2.869-3.765-24.206-3.765-24.206l.9-33.53Z" transform="translate(-346.2 -415.704)" fill="#2f2e41"/><path d="M380.787,764.594s-4.841,9.5-1.614,9.862,4.483.359,5.917-1.076a23.879,23.879,0,0,1,3.651-2.629,4.721,4.721,0,0,0,2.24-4.489c-.095-.877-.422-1.6-1.229-1.667-2.152-.179-4.662-2.152-4.662-2.152Z" transform="translate(-341.952 -613.414)" fill="#2f2e41"/><path d="M511.6,798.833s-4.841,9.5-1.614,9.862,4.483.359,5.917-1.076a23.879,23.879,0,0,1,3.651-2.629,4.721,4.721,0,0,0,2.24-4.489c-.095-.877-.422-1.6-1.229-1.667-2.152-.179-4.662-2.152-4.662-2.152Z" transform="translate(-446.047 -640.66)" fill="#2f2e41"/><circle cx="7.537" cy="7.537" r="7.537" transform="translate(52.897 36.462)" fill="#ffb8b8"/><path d="M450.723,260.308s-5.384,9.906-5.814,9.906,9.691,3.23,9.691,3.23,2.8-9.475,3.23-10.337Z" transform="translate(-395.134 -213.833)" fill="#ffb8b8"/><path d="M419.545,291.014s-10.758-5.917-11.834-5.738S395.16,295.5,395.339,299.62a88.617,88.617,0,0,0,1.614,10.938s.538,19.006,1.614,19.185-.179,3.407.179,3.407,25.1,0,25.282-.538S419.545,291.014,419.545,291.014Z" transform="translate(-355.698 -233.698)" fill="#d0cde1"/><path d="M529.306,521.892s3.407,10.4.538,10.041-4.124-8.965-4.124-8.965Z" transform="translate(-459.451 -421.992)" fill="#ffb8b8"/><path d="M476.387,310.242s-6.634,1.434-5.558,10.4,3.048,17.93,3.048,17.93l6.634,14.524.717,2.69,4.841-1.255-3.586-20.8s-1.255-22.234-2.869-22.951A6.944,6.944,0,0,0,476.387,310.242Z" transform="translate(-415.677 -253.553)" fill="#d0cde1"/><path d="M277.5,411.88l8.248,14.7L278.8,411.09Z" transform="translate(-220.825 -327.131)" opacity="0.1"/><path d="M468.946,210.594l.025-.576,1.146.285a1.281,1.281,0,0,0-.513-.943l1.22-.068a13.168,13.168,0,0,0-8.808-5.443c-2.64-.383-5.579.171-7.39,2.13a8.9,8.9,0,0,0-1.822,3.392c-.723,2.271-.87,4.978.637,6.823,1.532,1.876,4.208,2.243,6.618,2.476a5.226,5.226,0,0,0,2.523-.171,6.07,6.07,0,0,0-.338-2.663,1.774,1.774,0,0,1-.179-.848c.107-.717,1.064-.9,1.783-.8s1.583.245,2.055-.305a2.441,2.441,0,0,0,.349-1.429C466.37,211.1,468.934,210.878,468.946,210.594Z" transform="translate(-401.008 -168.814)" fill="#2f2e41"/><circle cx="8.782" cy="8.782" r="8.782" transform="translate(105.386 143.271)" fill="#44ab96"/><circle cx="8.782" cy="8.782" r="8.782" transform="translate(2.247 140.208)" fill="#44ab96"/><circle cx="6.331" cy="6.331" r="6.331" transform="translate(4.697 131.017)" fill="#44ab96"/><circle cx="4.493" cy="4.493" r="4.493" transform="translate(6.536 123.052)" fill="#44ab96"/></svg>