<svg xmlns="http://www.w3.org/2000/svg" width="162.5" height="170.44"><ellipse data-name="Ellipse 12" cx="63.01" cy="11.13" rx="63.01" ry="11.13" transform="translate(0 148.17)"/><circle data-name="Ellipse 13" cx="61.5" cy="61.5" r="61.5" transform="translate(39.5)"/><circle data-name="Ellipse 14" cx="50.83" cy="50.83" r="50.83" transform="translate(50.47 10.74)" fill="#fff" opacity=".05"/><circle data-name="Ellipse 15" cx="41.66" cy="41.66" r="41.66" transform="translate(59.64 19.91)" fill="#fff" opacity=".05"/><circle data-name="Ellipse 16" cx="29.87" cy="29.87" r="29.87" transform="translate(71.43 31.7)" fill="#fff" opacity=".05"/><path data-name="Path 79" d="M40.27 67.09s-4.84 13.63-2.7 18.47a60.11 60.11 0 0 0 5.57 9.5s-1.26-27.07-2.87-27.97Z" fill="#d0cde1"/><path data-name="Path 80" d="M40.27 67.09s-4.84 13.63-2.7 18.47a60.11 60.11 0 0 0 5.57 9.5s-1.26-27.07-2.87-27.97Z" opacity=".1"/><path data-name="Path 81" d="M43.68 98.65a29.06 29.06 0 0 1-.54 3.58c-.18.18.18.54 0 1.08s-.36 1.25 0 1.43-1.97 15.96-1.97 15.96-5.74 7.53-3.41 19.36l.72 12.02s5.55.36 5.55-1.62a32.85 32.85 0 0 1-.36-3.4c0-1.08.9-1.08.36-1.62s-.53-.9-.53-.9.9-.71.71-.9 1.62-12.9 1.62-12.9 1.97-1.97 1.97-3.04v-1.08s.9-2.33.9-2.51 4.84-11.12 4.84-11.12l1.97 7.9 2.16 11.3s1.07 10.21 3.22 14.16c0 0 3.77 12.9 3.77 12.55s6.27-1.26 6.1-2.87-3.77-24.2-3.77-24.2l.9-33.54Z" fill="#2f2e41"/><path data-name="Path 82" d="M38.83 151.18s-4.84 9.5-1.6 9.86 4.47.36 5.9-1.07a23.88 23.88 0 0 1 3.66-2.63 4.72 4.72 0 0 0 2.24-4.5c-.1-.87-.42-1.6-1.23-1.66-2.15-.18-4.66-2.15-4.66-2.15Z" fill="#2f2e41"/><path data-name="Path 83" d="M65.55 158.17s-4.84 9.5-1.61 9.87 4.48.35 5.92-1.08a23.88 23.88 0 0 1 3.65-2.63 4.72 4.72 0 0 0 2.24-4.49c-.1-.88-.43-1.6-1.23-1.67-2.15-.17-4.66-2.15-4.66-2.15Z" fill="#2f2e41"/><circle data-name="Ellipse 17" cx="7.54" cy="7.54" r="7.54" transform="translate(52.9 36.46)" fill="#ffb8b8"/><path data-name="Path 84" d="M55.59 46.47s-5.39 9.91-5.82 9.91 9.7 3.23 9.7 3.23 2.8-9.47 3.23-10.34Z" fill="#ffb8b8"/><path data-name="Path 85" d="M63.85 57.32S53.09 51.4 52 51.58 39.46 61.8 39.64 65.92a88.62 88.62 0 0 0 1.62 10.94s.53 19 1.6 19.18-.17 3.41.19 3.41 25.1 0 25.28-.54-4.48-41.6-4.48-41.6Z" fill="#d0cde1"/><path data-name="Path 86" d="M69.86 99.9s3.4 10.4.53 10.04-4.12-8.96-4.12-8.96Z" fill="#ffb8b8"/><path data-name="Path 87" d="M60.71 56.69s-6.63 1.43-5.56 10.4 3.05 17.93 3.05 17.93l6.63 14.52.72 2.7 4.84-1.26-3.58-20.8s-1.26-22.24-2.87-22.95a6.94 6.94 0 0 0-3.23-.54Z" fill="#d0cde1"/><path data-name="Path 88" d="m56.68 84.75 8.24 14.7-6.94-15.5Z" opacity=".1"/><path data-name="Path 89" d="m67.94 41.78.02-.58 1.15.29a1.28 1.28 0 0 0-.51-.94l1.22-.07A13.17 13.17 0 0 0 61 35.04c-2.64-.39-5.58.17-7.4 2.13a8.9 8.9 0 0 0-1.81 3.39c-.73 2.27-.87 4.98.63 6.82 1.54 1.88 4.21 2.24 6.62 2.48a5.23 5.23 0 0 0 2.52-.17 6.07 6.07 0 0 0-.33-2.67 1.77 1.77 0 0 1-.18-.85c.1-.71 1.06-.9 1.78-.8s1.58.25 2.06-.3a2.44 2.44 0 0 0 .34-1.43c.12-1.35 2.69-1.58 2.7-1.86Z" fill="#2f2e41"/><circle data-name="Ellipse 18" cx="8.78" cy="8.78" r="8.78" transform="translate(105.39 143.27)" fill="#c5efcb"/><circle data-name="Ellipse 19" cx="8.78" cy="8.78" r="8.78" transform="translate(2.25 140.2)" fill="#c5efcb"/><circle data-name="Ellipse 20" cx="6.33" cy="6.33" r="6.33" transform="translate(4.7 131.02)" fill="#c5efcb"/><circle data-name="Ellipse 21" cx="4.49" cy="4.49" r="4.49" transform="translate(6.54 123.05)" fill="#c5efcb"/></svg>